# xmcd CD database file
# Copyright (C) 1996 Ti Kan
#
# Track frame offsets:
# 	182
# 	13435
# 	28550
# 	44247
# 	55485
# 	72880
# 	87212
# 	102630
# 	121410
# 	136592
# 	153342
# 	169945
#
# Disc length: 2474 seconds
#
# Revision: 1
# Processed by: cddbd v1.4b41PL1 Copyright (c) Steve Scherf et al.
# Submitted via: DiscPlay 3.3.1
#
DISCID=a909a80c
DTITLE=Emilio - Life Is Good
DYEAR=1900
DGENRE=
TTITLE0=Even If I Tried
TTITLE1=I Think We're On To Something
TTITLE2=It's Not The End Of The World
TTITLE3=Long As I Got You
TTITLE4=Any Little Lie
TTITLE5=Life Is Good
TTITLE6=Honky Tonk Habits
TTITLE7=There'll Be No More Crying
TTITLE8=I Was There
TTITLE9=Have I Told You Lately
TTITLE10=Hace Cuanto He Dicho Que Te Amo
TTITLE11=No Es El Fin Del Mundo
EXTD=
EXTT0=
EXTT1=
EXTT2=
EXTT3=
EXTT4=
EXTT5=
EXTT6=
EXTT7=
EXTT8=
EXTT9=
EXTT10=Have I Told You Lately
EXTT11=Its Not the End of The World
PLAYORDER=
